<?xml version="1.0" encoding="utf-8"?>
<!-- Generator: Adobe Illustrator 22.1.0, SVG Export Plug-In . SVG Version: 6.00 Build 0)  -->
<svg version="1.1" xmlns="http://www.w3.org/2000/svg" xmlns:xlink="http://www.w3.org/1999/xlink" x="0px" y="0px"
	 viewBox="0 0 757 532" style="enable-background:new 0 0 757 532;" xml:space="preserve">
<style type="text/css">
	.st0{display:none;fill:#131B42;}
	.st1{fill:#131B42;}
	.st2{fill:#E59E8B;}
	.st3{fill:#10183C;}
	.st4{fill:#B27F6D;}
	.st5{fill:#F3F0ED;}
	.st6{fill:#B77D6E;}
	.st7{fill:#C08974;}
	.st8{fill:#202B5F;}
	.st9{fill:#B67D6B;}
	.st10{fill:url(#SVGID_1_);}
	.st11{fill:url(#SVGID_2_);}
	.st12{fill:url(#SVGID_3_);}
	.st13{clip-path:url(#SVGID_5_);fill:#FCD4C5;}
	.st14{clip-path:url(#SVGID_5_);fill:#131B42;}
	.st15{clip-path:url(#SVGID_5_);fill:url(#SVGID_6_);}
	.st16{clip-path:url(#SVGID_5_);fill:#202B5F;}
	.st17{clip-path:url(#SVGID_5_);fill:#FFA080;}
	.st18{clip-path:url(#SVGID_5_);}
	.st19{fill:url(#SVGID_7_);}
	.st20{fill:url(#SVGID_8_);}
	.st21{fill:url(#SVGID_9_);}
	.st22{clip-path:url(#SVGID_5_);fill:url(#SVGID_10_);}
	.st23{fill:#FD794D;}
	.st24{fill:#FCD4C5;}
	.st25{fill:#2244F0;}
	.st26{fill:#FFA080;}
	.st27{fill:#5D73E5;}
</style>
<g id="manSteen">
</g>
<g id="wolkenR">
	<g>
		<linearGradient id="SVGID_1_" gradientUnits="userSpaceOnUse" x1="708.5286" y1="469.1402" x2="728.3424" y2="356.7708">
			<stop  offset="0" style="stop-color:#FFFFFF;stop-opacity:0"/>
			<stop  offset="7.477757e-02" style="stop-color:#FDFCFB;stop-opacity:0.1808"/>
			<stop  offset="0.4135" style="stop-color:#F4F1EC"/>
		</linearGradient>
		<path class="st10" d="M756.6,361.8c0,0-12.6,37.7-29.3,50.2c-16.7,12.6-87.9,10.5-90,25.1c-2.1,14.6-8.4,25.1,25.1,18.8
			c33.5-6.3,75.3-18.8,94.2-8.4c18.8,10.5,41.8-52.3,41.8-52.3L756.6,361.8z"/>
		<linearGradient id="SVGID_2_" gradientUnits="userSpaceOnUse" x1="372.7998" y1="246.7042" x2="760.7677" y2="246.7042">
			<stop  offset="0" style="stop-color:#FFFFFF;stop-opacity:0"/>
			<stop  offset="0.1294" style="stop-color:#FBFAF8;stop-opacity:0.159"/>
			<stop  offset="0.4061" style="stop-color:#F6F3EF;stop-opacity:0.4993"/>
			<stop  offset="0.8135" style="stop-color:#F4F1EC"/>
		</linearGradient>
		<path class="st11" d="M760.8,227.8c-6.3,0-90,23-125.5,56.5c-35.6,33.5-73.2,75.3-146.5,73.2s-129.7-23-113-48.1
			c16.7-25.1,60.7-14.6,121.4-16.7c75.5-2.6,90-46,110.9-90c20.9-43.9,152.7-67,152.7-67"/>
		<linearGradient id="SVGID_3_" gradientUnits="userSpaceOnUse" x1="433.6712" y1="151.6653" x2="349.0167" y2="-164.2699">
			<stop  offset="0" style="stop-color:#FFFFFF;stop-opacity:0"/>
			<stop  offset="4.202579e-02" style="stop-color:#FDFCFB;stop-opacity:0.1016"/>
			<stop  offset="0.2227" style="stop-color:#F6F4F0;stop-opacity:0.5386"/>
			<stop  offset="0.4135" style="stop-color:#F4F1EC"/>
		</linearGradient>
		<path class="st12" d="M156.1,112.8c23.9,23.2,77.4,58.6,138.1,69.1c60.7,10.5,90-52.3,148.6-79.5s92.1-50.2,150.7-33.5
			S754.5,52.1,765,24.9c10.5-27.2-18.6-83.1-29.3-90C725-72,640-80,567-73c-72.8,7-164,39.3-164,39.3
			c-62.8,14.6-83.7,98.3-146.5,94.2C186.8,55.8,141-62,141-62L0.3-70.8C0.3-70.8,132.1,89.5,156.1,112.8z"/>
	</g>
</g>
<g id="Layer_2">
</g>
</svg>
