<?xml version="1.0" encoding="utf-8"?>
<!-- Generator: Adobe Illustrator 22.1.0, SVG Export Plug-In . SVG Version: 6.00 Build 0)  -->
<svg version="1.1" id="Layer_1" xmlns="http://www.w3.org/2000/svg" xmlns:xlink="http://www.w3.org/1999/xlink" x="0px" y="0px"
	 viewBox="0 0 588 1949" style="enable-background:new 0 0 588 1949;" xml:space="preserve">
<style type="text/css">
	.st0{display:none;fill:#131B42;}
	.st1{clip-path:url(#SVGID_2_);fill:#FCD4C5;}
	.st2{clip-path:url(#SVGID_2_);fill:#131B42;}
	.st3{clip-path:url(#SVGID_2_);fill:url(#SVGID_3_);}
	.st4{clip-path:url(#SVGID_2_);fill:#202B5F;}
	.st5{clip-path:url(#SVGID_2_);fill:#FFA080;}
	.st6{clip-path:url(#SVGID_2_);}
	.st7{fill:url(#SVGID_4_);}
	.st8{fill:url(#SVGID_5_);}
	.st9{fill:url(#SVGID_6_);}
	.st10{clip-path:url(#SVGID_2_);fill:url(#SVGID_7_);}
	.st11{fill:#E59E8B;}
	.st12{fill:#10183C;}
	.st13{fill:#B27F6D;}
	.st14{fill:#F3F0ED;}
	.st15{fill:#B77D6E;}
	.st16{fill:#C08974;}
	.st17{fill:#131B42;}
	.st18{fill:#202B5F;}
	.st19{fill:#B67D6B;}
</style>
<rect x="-0.4" y="1154.8" class="st0" width="588" height="797.2"/>
<g>
	<defs>
		<rect id="SVGID_1_" x="-0.4" y="-0.2" width="588" height="1952.2"/>
	</defs>
	<clipPath id="SVGID_2_">
		<use xlink:href="#SVGID_1_"  style="overflow:visible;"/>
	</clipPath>
	<rect x="-0.4" y="-0.2" class="st1" width="588" height="1207.3"/>
	<rect y="1279" class="st2" width="231" height="43"/>
	
		<linearGradient id="SVGID_3_" gradientUnits="userSpaceOnUse" x1="250.9186" y1="1058.8274" x2="250.9186" y2="1309.2379" gradientTransform="matrix(0.9475 0.3196 -0.4072 1.2071 452.3947 -416.9315)">
		<stop  offset="0" style="stop-color:#FFFFFF;stop-opacity:0"/>
		<stop  offset="4.202579e-02" style="stop-color:#FDFCFB;stop-opacity:0.1016"/>
		<stop  offset="0.2227" style="stop-color:#F6F4F0;stop-opacity:0.5386"/>
		<stop  offset="0.4135" style="stop-color:#F4F1EC"/>
	</linearGradient>
	<polygon class="st3" points="367.9,1248.9 1,1191 0,854 514.3,1039.7 	"/>
	<path class="st4" d="M591.8,824.2c0,0-41.8,96.3-123.5,144.4c-37.2,21.9-92.1-6.3-125.5,35.6l108.8,62.8l163.2,43.9V851.4
		L591.8,824.2z"/>
	<path class="st4" d="M-6.7,1037.6c18.8-18.8,56.5-35.6,94.2,16.7c37.7,52.3,71.1,23,115.1,43.9s102.5,102.5,102.5,102.5
		l-146.5,48.1L-36,1196.6L-6.7,1037.6z"/>
	<path class="st5" d="M-23.4,1087.8c0,0,10.5,14.6,106.7,43.9s119.3,18.8,200.9,56.5L240.2,1295h-226l-37.7-140.2V1087.8z"/>
	<g class="st6">
		<linearGradient id="SVGID_4_" gradientUnits="userSpaceOnUse" x1="539.5286" y1="469.1402" x2="559.3424" y2="356.7708">
			<stop  offset="0" style="stop-color:#FFFFFF;stop-opacity:0"/>
			<stop  offset="7.477757e-02" style="stop-color:#FDFCFB;stop-opacity:0.1808"/>
			<stop  offset="0.4135" style="stop-color:#F4F1EC"/>
		</linearGradient>
		<path class="st7" d="M587.6,361.8c0,0-12.6,37.7-29.3,50.2c-16.7,12.6-87.9,10.5-90,25.1s-8.4,25.1,25.1,18.8
			c33.5-6.3,75.3-18.8,94.2-8.4c18.8,10.5,41.8-52.3,41.8-52.3L587.6,361.8z"/>
		<linearGradient id="SVGID_5_" gradientUnits="userSpaceOnUse" x1="203.7998" y1="246.7042" x2="591.7677" y2="246.7042">
			<stop  offset="0" style="stop-color:#FFFFFF;stop-opacity:0"/>
			<stop  offset="0.1294" style="stop-color:#FBFAF8;stop-opacity:0.159"/>
			<stop  offset="0.4061" style="stop-color:#F6F3EF;stop-opacity:0.4993"/>
			<stop  offset="0.8135" style="stop-color:#F4F1EC"/>
		</linearGradient>
		<path class="st8" d="M591.8,227.8c-6.3,0-90,23-125.5,56.5s-73.2,75.3-146.5,73.2s-129.7-23-113-48.1
			c16.7-25.1,60.7-14.6,121.4-16.7c75.5-2.6,90-46,110.9-90c20.9-43.9,152.7-67,152.7-67"/>
		<linearGradient id="SVGID_6_" gradientUnits="userSpaceOnUse" x1="313.5632" y1="138.5647" x2="241.8198" y2="-129.1855">
			<stop  offset="0" style="stop-color:#FFFFFF;stop-opacity:0"/>
			<stop  offset="4.202579e-02" style="stop-color:#FDFCFB;stop-opacity:0.1016"/>
			<stop  offset="0.2227" style="stop-color:#F6F4F0;stop-opacity:0.5386"/>
			<stop  offset="0.4135" style="stop-color:#F4F1EC"/>
		</linearGradient>
		<path class="st9" d="M-12.9,112.8c0,0,77.4,58.6,138.1,69.1c60.7,10.5,90-52.3,148.6-79.5s92.1-50.2,150.7-33.5
			S585.5,52.1,596,24.9c10.5-27.2-29.3-90-29.3-90L234-33.7c-62.8,14.6-83.7,98.3-146.5,94.2C17.8,55.8-12.9-60.9-12.9-60.9V112.8z"
			/>
	</g>
	<linearGradient id="SVGID_7_" gradientUnits="userSpaceOnUse" x1="144.7951" y1="1155.9014" x2="117.7538" y2="1326.6338">
		<stop  offset="0.2027" style="stop-color:#FFA080"/>
		<stop  offset="0.2552" style="stop-color:#CB8372"/>
		<stop  offset="0.3178" style="stop-color:#936364"/>
		<stop  offset="0.3788" style="stop-color:#654958"/>
		<stop  offset="0.4367" style="stop-color:#42354E"/>
		<stop  offset="0.4908" style="stop-color:#282747"/>
		<stop  offset="0.5396" style="stop-color:#181E43"/>
		<stop  offset="0.5784" style="stop-color:#131B42"/>
	</linearGradient>
	<path class="st10" d="M-12.7,1306l281.8-8.9l24.5-73.8c0,0-43.4-45-84.2-54.4c-40.8-9.4-87.3-4.5-133.9-10.1
		c-46.6-5.6-86.3-27.5-86.3-27.5L-12.7,1306z"/>
	<path class="st2" d="M588,1095c-14.6-23-96.7-40.7-151.1-63.7c-54.4-23-196.7-119.3-226-106.7c-29.3,12.6-14.6,52.3,4.2,108.8
		c18.8,56.5,60.7,123.5,48.1,171.6c-12.6,48.1-87.9,117.2-87.9,117.2L588,1320V1095z"/>
</g>
<g>
	<path class="st11" d="M382.3,574.9c0,0,2.1,12.6,0,16.7s-10.5,14.6-6.3,16.7c4.2,2.1,8.4,0,8.4,0s0,14.6,2.1,16.7
		c2.1,2.1,37.7-25.1,37.7-25.1s-6.3-25.1-14.6-27.2C401.1,570.7,382.3,574.9,382.3,574.9z"/>
	<path class="st12" d="M381.6,557.7c3-1.7,3.5,3,9.8,3s2.5-3.3,6.7-5.4c4.2-2.1,7.7,4.7,10.9,4.7c4.2,0,2.6-4,8.9-4
		c6.3,0,7.6,7.2,13.9,7.2c6.3,0,12.2,8.4,9.8,16.4c-1.7,5.7-16.9,28.3-25.2,26.2c-8.4-2.1,0.4-6.6-6.8-14.2
		c-3.2-3.4-4.3-1.7-8.5-3.7s-0.7-8.2-3-9.5c-8.1-4.7-15.7,0.1-20.1-2.9c-2-1.3-1.9-4.5,0.3-7.2C381.3,564.4,378,559.8,381.6,557.7z"
		/>
	<path class="st11" d="M317.7,593.6c0,0,12.2-12.2,25.9-15.1c13.7-2.9,28.2-3.8,30.8-2.4c2.6,1.5,2.5,3.7-3.9,5.1
		c-6.5,1.5-15.5,1.9-15.7,3.2s0,2.3,3.1,2.5c3.1,0.3,8.8-0.7,8.7,0.9c-0.1,1.6-12.6,3-15.4,3s-13.5,3.2-19.1,7.8
		C326.5,603.4,317.7,593.6,317.7,593.6z"/>
	<g>
		<path class="st13" d="M469.4,632.5c0,0,8.1-9.5,3.3-21.4c-4.8-11.9-20.3-22.6-25.4-23.4c-5.1-0.7-57.8,38.3-55.1,44.8
			c2.7,6.5,14.1,20.9,24.7,20.5C427.5,652.7,469.4,632.5,469.4,632.5z"/>
		<path class="st14" d="M451.9,590.6l-60.5,50c-1.4,1.2-3.6,1-4.8-0.5l-4.7-5.7c-1.2-1.4-1-3.6,0.5-4.8l60.5-50
			c1.4-1.2,3.6-1,4.8,0.5l4.7,5.7C453.6,587.3,453.4,589.4,451.9,590.6z"/>
	</g>
	<path class="st11" d="M518.7,818c1.3,10.1-1.7,27.6-0.8,31.1c0.9,3.5,2.5,0.9,2.5-3c0-3.9-0.8-5.8,1-5.9c1.8-0.1,3.3,21.3,5.1,22.4
		s6.7-1.2,7.8-10.7c1.2-9.5-0.9-18.7-3.1-25.2c-2.2-6.5-2.9-15.2-3.1-19.2"/>
	<path class="st15" d="M464.4,1039.1c-5.5,2.7-1.6,5.2,31,12.8c17.9,4.2,20,0,20,0s-3.9-31.1-7.7-42.8c-3.6-11-19.7-3-19.7-3
		s8.9,28.7,8.7,30.4C496.3,1040.8,469.9,1036.4,464.4,1039.1z"/>
	<path class="st16" d="M248.2,945.1c0,0-23.1-11.4-29-9.4c-5.9,2,7.6,11.5,21.2,18.6s16.7,6.9,18.8,2.6c2.1-4.3,16.1-31.4,16.1-31.4
		l-18.2-10.2C257.1,915.3,248.6,934.2,248.2,945.1z"/>
	<path class="st17" d="M435.3,807.9c0,0,7,73.1,10.9,94.2c8.6,47.7,36.4,100.9,42.3,107.6c2.2,2.6,18,1.1,19.3-0.5
		c3.1-3.8-0.3-37.1-3.9-51.3s-8.7-25.7-10.4-35.4c-1.9-10.9,2.4-101.6,3.7-122.8c1.3-21.2-42.5-16.5-48.3-12.3
		C443.1,791.6,436,798.9,435.3,807.9z"/>
	<path class="st18" d="M395.9,770.4c0,0-81.6,17.3-107.8,40.1c-14,12.1-34.9,96.3-33.5,102.6c0.8,3.7,19.9,13,21.9,12.2
		c2-0.8,24.2-32.7,28.7-41.2c9.5-18,18.4-45.8,21-49.1c2.6-3.3,70.5-5.8,110.9-16.7c13.5-3.7,54.4-15.9,54.4-28.8
		c0-11.9-17.4-24.5-41.7-24.3C425.3,765.4,395.9,770.4,395.9,770.4z"/>
	<path class="st13" d="M500.5,756.7c12.9,38.7,5.1,35.9-2.1,41.5S393.1,781.8,389.8,774c-3.3-7.8,4.7-1.7,8.4-13.9
		c3.7-12.2-21.1-83.5-21.1-83.5s-9.6-1-24.6-2.8c-15-1.7-80.2-25.5-80.2-43.8c0-17.3,40.6-42,42.4-41.2c1.7,0.9,21.3,5.8,22.5,10.6
		c1.2,4.9-24.2,20.4-24.6,26.2c-0.3,5.8,60.3,3.5,75,8.4"/>
	<path class="st19" d="M507.4,795.3c5.2,21.8,3.9,27.5,10.8,28.1c3.9,0.3,11.9-2.6,12.8-4.3c4.3-8.7,2.9-66,2.2-77.9
		c-1-17.1-1-21.1-6.3-32.3c-5.2-11.2-35.1-55.2-50.2-58.8c-15.2-3.7-3.8,80.9-3.8,80.9S505.8,788.6,507.4,795.3z"/>
	<g>
		<path class="st12" d="M415.2,643.6c-6.5,11,2.8,76.5,19.4,99.9c11,15.5,20.4,17.6,34.2,15.5c13.8-2.1,33.8-3,41-16.7
			c9.8-18.9-6.5-58.4-9.2-67.8s-16-46.3-31.3-48.3C455.3,624.3,425.3,626.4,415.2,643.6z"/>
		<path class="st12" d="M432.5,728.1c-11,5.2-41.2,5.2-41.2,5.2s-0.5,6.5,2.3,9.6c2.8,3.1,39.8,0.9,43.2-2.1
			S432.5,728.1,432.5,728.1z"/>
		<path class="st12" d="M395.1,636c-2.4,0.5-3.8,0.5-4.1,1.6c-0.9,3,17.4,25.5,24.3,28.9c5.1,2.6,6.8-13.9,6.8-13.9
			S404,634.3,395.1,636z"/>
	</g>
</g>
</svg>
