<?xml version="1.0" encoding="utf-8"?>
<!-- Generator: Adobe Illustrator 22.1.0, SVG Export Plug-In . SVG Version: 6.00 Build 0)  -->
<svg version="1.1" id="Layer_1" xmlns="http://www.w3.org/2000/svg" xmlns:xlink="http://www.w3.org/1999/xlink" x="0px" y="0px"
	 viewBox="0 0 400 400" style="enable-background:new 0 0 400 400;" xml:space="preserve">
<style type="text/css">
	.st0{fill:#FCD4C5;}
	.st1{fill:#202B5F;}
</style>
<path class="st0" d="M283.5,53c45.1,0,81.8,36.7,81.8,81.8c0,36.3-20.8,76.6-61.9,119.7c-32.8,34.4-72.4,64.1-103.3,84.8
	c-30.9-20.8-70.5-50.4-103.3-84.8C55.8,211.4,35,171.1,35,134.8C35,89.7,71.7,53,116.8,53c13.1,0,25.6,3,37.1,8.9
	c7.9,4,15.1,9.3,21.4,15.8l24.8,25.4l24.8-25.4c6.3-6.4,13.5-11.7,21.4-15.8C257.9,56,270.4,53,283.5,53 M283.5,18.3
	c-18.6,0-36.5,4.3-52.9,12.7c-11.2,5.7-21.5,13.4-30.4,22.4c-8.8-9-19.2-16.7-30.4-22.4c-16.5-8.4-34.3-12.7-52.9-12.7
	C52.5,18.3,0.2,70.6,0.2,134.8c0,45.5,24,93.9,71.4,143.7c39.6,41.6,88,76.3,121.7,98l6.7,4.3l6.7-4.3c33.7-21.8,82.1-56.4,121.7-98
	C376,228.7,400,180.4,400,134.8C400,70.6,347.7,18.3,283.5,18.3L283.5,18.3z"/>
</svg>
