<?xml version="1.0" encoding="utf-8"?>
<!-- Generator: Adobe Illustrator 22.1.0, SVG Export Plug-In . SVG Version: 6.00 Build 0)  -->
<svg version="1.1" id="Layer_1" xmlns="http://www.w3.org/2000/svg" xmlns:xlink="http://www.w3.org/1999/xlink" x="0px" y="0px"
	 viewBox="0 0 400 400" style="enable-background:new 0 0 400 400;" xml:space="preserve">
<style type="text/css">
	.st0{fill:#FCD4C5;}
	.st1{fill:#202B5F;}
</style>
<path class="st1" d="M283.5,18.5c-18.6,0-36.4,4.3-52.9,12.7c-11.2,5.7-21.5,13.3-30.4,22.4c-8.8-9-19.2-16.7-30.4-22.4
	c-16.5-8.4-34.3-12.7-52.9-12.7C52.7,18.5,0.5,70.8,0.5,135c0,45.5,24,93.8,71.4,143.6c39.6,41.6,88,76.2,121.7,98l6.7,4.3l6.7-4.3
	c33.7-21.8,82.1-56.4,121.7-98C376,228.8,400,180.5,400,135C400,70.8,347.7,18.5,283.5,18.5z"/>
</svg>
